# Blender v3.6.0 OBJ File: 'wizardcat.blend'
# www.blender.org
mtllib wizardcat_002.mtl
o NurbsPath
v -0.192668 0.067042 -0.791324
v -0.264093 0.144449 -0.712059
v -0.184712 0.229570 -0.758852
v -0.165381 0.144448 -0.848947
v -0.681800 0.361423 -1.045668
v -0.596585 0.380994 -0.955714
v -0.554635 0.489584 -1.002456
v -0.639850 0.470013 -1.092410
v -0.761539 0.552095 -0.246475
v -0.650389 0.530188 -0.192605
v -0.583911 0.598326 -0.274302
v -0.695062 0.620233 -0.328171
v -0.819660 1.026924 -0.268715
v -0.715870 1.054429 -0.217922
v -0.637627 1.015773 -0.303404
v -0.745126 0.988268 -0.361918
v -0.680720 1.200951 -0.259059
v 0.331731 1.571353 -0.327427
v -0.200854 1.426535 0.213227
v -0.189532 1.503621 -0.288029
v -0.137161 3.057997 -0.259110
v -0.273300 2.948995 0.374526
v -0.893889 1.900685 0.822341
v 1.187651 2.241810 0.690221
v -0.339917 2.461082 -1.116300
v -0.336022 2.422498 0.401466
v -0.108141 2.580161 -0.366810
v 0.407994 2.520548 0.257440
v -0.250285 2.349343 0.421052
v -0.404330 2.164945 0.373704
v -0.101903 2.155533 0.551576
v -0.281230 1.885157 -0.302032
v -0.207110 1.671210 -0.105209
v -0.442374 1.853444 -0.030281
v -0.082176 1.813943 0.461426
v -0.356193 1.822471 0.300263
v -0.125260 1.641781 0.208718
v -0.499447 2.198857 0.008888
v -0.280040 2.462888 -0.025391
v -0.321595 2.233857 -0.291039
v 0.190297 1.658594 0.128525
v 0.411229 1.863358 0.105237
v 0.250085 1.831645 0.376988
v 0.289569 2.435432 0.248526
v 0.264807 2.175070 0.458384
v 0.442659 2.210071 0.158457
v 0.325047 1.894083 -0.225308
v 0.108448 1.687775 -0.185403
v 0.051031 1.902859 -0.386470
v 0.347542 2.243982 -0.206359
v 0.045115 2.253395 -0.384232
v 0.104839 2.483393 -0.123201
v 0.210351 3.012733 0.280901
v 0.172557 3.501696 -0.035304
v -0.687197 0.057752 0.299007
v 0.867007 0.057752 -1.131862
v -0.333978 0.458638 -1.079190
v 0.480254 2.271627 -0.632683
v -0.330728 1.740797 0.784710
v -0.749050 2.191901 -0.455028
v -0.428936 2.211284 0.488612
v -0.329410 2.628691 0.575367
v -0.306829 2.358658 0.236137
v 0.459007 2.716556 0.399835
v -0.059683 2.316119 0.429741
v 0.160726 2.329670 0.407576
v 0.522796 2.269797 0.280595
v 0.279241 2.394690 0.121045
v 0.240892 1.480804 0.267553
v 0.647921 1.964154 0.466386
v 0.553285 0.057752 0.527403
v -0.135556 0.699772 -0.786469
v 0.055364 0.057752 -0.959589
v -0.375769 0.057752 -0.797540
v -0.015032 1.449363 0.236079
v -0.113552 0.057752 0.404626
v -0.113552 -0.085901 0.535355
v 0.223421 1.733814 0.642364
v 0.134383 1.786868 0.492587
v -0.197310 1.882427 0.508405
v 0.001107 1.882427 0.508405
v -0.197310 2.076517 0.549617
v 0.001107 2.076517 0.549617
v 0.147423 1.916886 0.488082
v 0.322089 1.920172 0.394005
v 0.158138 2.113200 0.514832
v 0.332803 2.116486 0.420755
vt 0.062409 0.190067
vt 0.073024 0.255879
vt 0.058500 0.261707
vt 0.050659 0.192134
vt 0.043345 0.253625
vt 0.087199 0.252658
vt 0.095882 0.190770
vt 0.103487 0.252053
vt 0.080951 0.189740
vt 0.068943 0.090277
vt 0.071526 0.189453
vt 0.049592 0.089818
vt 0.087924 0.087503
vt 0.055594 0.039765
vt 0.044680 0.030483
vt 0.034088 0.089720
vt 0.082322 0.025157
vt 0.103487 0.084522
vt 0.073030 0.036951
vt 0.061924 0.015637
vt 0.064033 0.041887
vt 0.755983 0.494661
vt 0.650557 0.279819
vt 0.755983 0.279819
vt 0.308445 0.205833
vt 0.273586 0.240692
vt 0.273586 0.205833
vt 0.983943 0.663988
vt 0.983943 0.735702
vt 0.756026 0.735702
vt 0.755983 0.162189
vt 0.983943 0.020673
vt 0.983943 0.162189
vt 0.952007 0.494661
vt 0.883414 0.494661
vt 0.983943 0.459258
vt 0.308445 0.286348
vt 0.273586 0.321207
vt 0.273586 0.286348
vt 0.650557 0.581513
vt 0.650557 0.494661
vt 0.650557 0.162189
vt 0.328549 0.815081
vt 0.133374 0.689048
vt 0.430947 0.704044
vt 0.227931 0.205833
vt 0.193071 0.240692
vt 0.193071 0.205833
vt 0.273586 0.044803
vt 0.308445 0.079662
vt 0.273586 0.079662
vt 0.273586 0.125318
vt 0.308445 0.160177
vt 0.273586 0.160177
vt 0.331273 0.125318
vt 0.331273 0.125318
vt 0.308445 0.102490
vt 0.250758 0.044803
vt 0.273586 0.021975
vt 0.273586 0.102490
vt 0.250758 0.125318
vt 0.250758 0.125318
vt 0.331273 0.160177
vt 0.308445 0.183005
vt 0.227931 0.240692
vt 0.250758 0.240692
vt 0.227931 0.263520
vt 0.331273 0.286348
vt 0.331273 0.286348
vt 0.308445 0.263520
vt 0.250758 0.205833
vt 0.250758 0.205833
vt 0.227931 0.183005
vt 0.308445 0.102490
vt 0.331273 0.079662
vt 0.331273 0.079662
vt 0.273586 0.102490
vt 0.308445 0.125318
vt 0.308445 0.044803
vt 0.331273 0.044803
vt 0.250758 0.079662
vt 0.250758 0.160177
vt 0.308445 0.021975
vt 0.354101 0.240692
vt 0.354101 0.205833
vt 0.308445 0.240692
vt 0.193071 0.263520
vt 0.331273 0.321207
vt 0.388960 0.205833
vt 0.253839 0.419741
vt 0.221502 0.815081
vt 0.012639 0.761484
vt 0.103218 0.692926
vt 0.519768 0.767156
vt 0.420307 0.815081
vt 0.328549 0.901445
vt 0.221502 0.901445
vt 0.116259 0.815081
vt 0.116259 0.901445
vt 0.420307 0.901445
vt 0.372824 0.979859
vt 0.170802 0.979859
vt 0.273834 0.979859
vt 0.983943 0.523751
vt 0.907809 0.775483
vt 0.994510 0.970681
vt 0.811291 0.970681
vt 0.220838 0.020852
vt 0.171778 0.053211
vt 0.122655 0.020852
vt 0.182356 0.197163
vt 0.180383 0.135476
vt 0.235445 0.111100
vt 0.161414 0.111061
vt 0.122655 0.111100
vt 0.650557 0.114765
vt 0.755983 0.020673
vt 0.983943 0.279819
vt 0.626724 0.970681
vt 0.555348 0.775483
vt 0.614991 0.775483
vt 0.630023 0.994966
vt 0.555348 0.970681
vt 0.983943 0.581513
vt 0.755983 0.581513
vt 0.650557 0.735702
vt 0.650557 0.020673
vt 0.909429 0.741007
vt 0.994510 0.775483
vt 0.308445 0.321207
vt 0.388960 0.240692
vt 0.455773 0.702265
vt 0.811291 0.775483
vt 0.717670 0.775483
vt 0.717670 0.970681
vt 1.000000 0.000000
vt 0.000000 1.000000
vt 0.000000 0.000000
vt 1.000000 0.000000
vt 0.000000 1.000000
vt 0.000000 0.000000
vt 1.000000 1.000000
vt 1.000000 1.000000
vn 0.0471 -0.6071 -0.7932
vn -0.6443 -0.7496 0.1515
vn -0.1628 0.5876 0.7926
vn 0.6899 0.5942 -0.4134
vn -0.9424 0.3087 -0.1288
vn -0.0195 -0.9730 0.2302
vn 0.9413 -0.3264 0.0866
vn -0.0202 0.9807 -0.1942
vn -0.7187 -0.1200 -0.6849
vn -0.4379 -0.0113 0.8989
vn 0.7172 0.1227 0.6860
vn 0.4350 -0.0068 -0.9004
vn 0.7401 0.0112 0.6724
vn -0.4846 0.3423 0.8050
vn -0.5695 0.4912 -0.6591
vn 0.3957 0.3000 -0.8680
vn -0.0179 -0.3963 -0.9179
vn 0.9654 -0.0482 -0.2562
vn 0.9927 -0.0811 -0.0891
vn -0.1793 0.1385 0.9740
vn 0.5989 0.3697 -0.7104
vn 0.2512 -0.2334 0.9394
vn -0.7797 -0.6252 0.0356
vn 0.7612 -0.6483 0.0176
vn -0.0841 0.7619 0.6422
vn 0.0267 -0.9946 -0.1002
vn -0.2464 0.0020 -0.9692
vn -0.9552 -0.1841 0.2318
vn -0.4929 0.1939 0.8482
vn -0.6322 -0.6317 -0.4486
vn -0.3565 -0.7428 0.5668
vn -0.7372 0.5644 -0.3713
vn 0.6630 -0.6797 0.3138
vn 0.7928 0.3350 0.5092
vn 0.4050 -0.5644 -0.7194
vn 0.4050 0.6381 -0.6549
vn 0.5072 0.0141 -0.8617
vn -0.7732 0.5803 0.2555
vn -0.1984 0.7575 -0.6220
vn -0.1423 -0.6960 -0.7038
vn -0.4968 -0.2482 0.8316
vn -0.5944 -0.8002 0.0800
vn -0.8530 -0.0825 -0.5154
vn 0.6470 -0.7250 -0.2361
vn 0.6439 0.7311 -0.2256
vn 0.8577 -0.1531 0.4908
vn 0.1795 -0.8270 0.5328
vn 0.1507 0.6117 0.7766
vn -0.0180 0.9904 0.1367
vn 0.1424 -0.9610 -0.2371
vn -0.6747 0.7378 0.0205
vn 0.4249 0.8645 -0.2687
vn 0.1864 0.0280 0.9821
vn -0.9772 -0.0116 -0.2119
vn 0.7436 0.3264 -0.5836
vn 0.7950 -0.2849 -0.5355
vn -0.8011 0.5944 -0.0699
vn 0.0894 0.5457 0.8332
vn -0.2989 -0.5275 -0.7952
vn -0.0025 0.9187 0.3950
vn -0.9183 0.2776 -0.2821
vn 0.7798 -0.5975 0.1870
vn 0.5184 0.6855 -0.5112
vn 0.2210 -0.2487 0.9430
vn -0.6230 -0.2835 0.7290
vn -0.2931 0.2073 -0.9334
vn 0.0328 -0.8277 0.5602
vn 0.9535 0.2414 0.1803
vn 0.0000 -1.0000 0.0000
vn -0.0048 0.4680 -0.8837
vn -0.8853 0.3255 0.3320
vn 0.1349 -0.6669 -0.7328
vn -0.3297 0.2010 0.9224
vn -0.9984 -0.0484 -0.0300
vn 0.3959 -0.7637 0.5099
vn -0.8605 -0.0062 0.5094
vn -0.2688 0.8465 0.4596
vn 0.1524 -0.4398 -0.8851
vn -0.6066 -0.4305 0.6683
vn -0.2393 0.4604 0.8548
vn 0.6205 0.3997 -0.6747
vn -0.8138 0.5417 -0.2104
vn -0.2678 -0.9490 0.1666
vn 0.7991 -0.5769 0.1691
vn 0.2533 0.9582 -0.1329
vn -0.8023 -0.1618 -0.5745
vn -0.4371 -0.0114 0.8993
vn 0.7613 0.1421 0.6326
vn 0.4810 -0.0150 -0.8766
vn -0.1150 -0.3215 -0.9399
vn -0.1366 0.1286 0.9822
vn -0.9582 -0.2787 -0.0645
vn 0.9289 -0.2947 -0.2242
vn 0.0830 0.5704 0.8172
vn 0.0277 -0.9946 -0.0997
vn -0.9552 -0.1840 0.2319
vn 0.5073 0.0141 -0.8617
vn -0.7379 0.6407 0.2121
vn -0.1417 -0.6964 -0.7036
vn 0.7888 0.5959 -0.1503
vn 0.1590 0.6323 0.7582
vn -0.0739 0.9653 0.2504
vn -0.5150 0.8569 0.0231
vn 0.4596 0.8406 -0.2866
vn -0.9593 0.1008 -0.2639
vn 0.8352 0.1687 -0.5234
vn 0.1010 0.9454 0.3099
vn -0.2977 0.9066 0.2990
vn 0.5637 -0.6722 0.4800
vn 0.9529 0.2425 0.1824
vn -0.2035 0.1980 -0.9588
vn -0.1310 0.5161 -0.8465
vn -0.1346 0.1095 0.9848
vn -0.9038 0.3426 -0.2567
vn -0.9096 0.3055 -0.2815
vn -0.0251 -0.5978 0.8012
vn 0.0000 -0.2077 0.9782
vn 0.4713 -0.1443 0.8701
usemtl Material
s off
f 5/1/1 4/2/1 1/3/1
f 6/4/2 1/3/2 2/5/2
f 3/6/3 6/7/3 2/8/3
f 4/2/4 7/9/4 3/6/4
f 5/1/5 12/10/5 8/11/5
f 6/4/6 9/12/6 5/1/6
f 11/13/7 6/7/7 7/9/7
f 12/10/8 7/9/8 8/11/8
f 13/14/9 12/10/9 9/12/9
f 14/15/10 9/12/10 10/16/10
f 11/13/11 14/17/11 10/18/11
f 12/10/12 15/19/12 11/13/12
f 14/17/13 15/19/13 17/20/13
f 13/14/14 14/15/14 17/20/14
f 16/21/15 13/14/15 17/20/15
f 15/19/16 16/21/16 17/20/16
f 20/22/17 58/23/17 18/24/17
f 50/25/18 42/26/18 47/27/18
f 77/28/19 76/29/19 75/30/19
f 69/31/20 76/32/20 71/33/20
f 57/34/21 72/35/21 73/36/21
f 45/37/22 35/38/22 43/39/22
f 20/22/23 59/40/23 60/41/23
f 18/24/24 70/42/24 69/31/24
f 28/43/25 23/44/25 24/45/25
f 48/46/26 37/47/26 33/48/26
f 32/49/27 51/50/27 49/51/27
f 36/52/28 38/53/28 34/54/28
f 29/55/29 30/56/29 31/57/29
f 32/49/30 33/58/30 34/59/30
f 35/60/31 36/61/31 37/62/31
f 38/53/32 39/63/32 40/64/32
f 41/65/33 42/66/33 43/67/33
f 44/68/34 45/69/34 46/70/34
f 47/71/35 48/72/35 49/73/35
f 50/74/36 51/75/36 52/76/36
f 47/77/37 51/50/37 50/74/37
f 29/55/38 38/53/38 30/78/38
f 52/76/39 40/79/39 39/80/39
f 33/58/40 49/51/40 48/81/40
f 35/60/41 30/78/41 36/52/41
f 37/62/42 34/54/42 33/82/42
f 40/79/43 34/59/43 38/83/43
f 41/65/44 47/27/44 42/26/44
f 44/84/45 50/25/45 52/85/45
f 43/39/46 46/86/46 45/37/46
f 37/47/47 43/67/47 35/87/47
f 29/88/48 45/37/48 44/68/48
f 39/89/49 44/84/49 52/85/49
f 24/45/50 23/44/50 25/90/50
f 26/91/51 25/92/51 23/93/51
f 28/43/52 25/94/52 27/95/52
f 26/91/53 53/96/53 22/97/53
f 27/98/54 22/97/54 21/99/54
f 27/95/55 53/96/55 28/43/55
f 53/96/56 21/100/56 54/101/56
f 21/99/57 22/97/57 54/102/57
f 22/97/58 53/96/58 54/103/58
f 73/36/59 74/104/59 57/34/59
f 79/105/60 58/106/60 60/107/60
f 61/108/61 62/109/61 63/110/61
f 68/111/62 64/112/62 66/113/62
f 63/110/63 62/109/63 65/114/63
f 65/114/64 62/109/64 61/108/64
f 67/115/65 64/112/65 68/111/65
f 66/113/66 64/112/66 67/115/66
f 69/31/67 78/116/67 75/117/67
f 18/24/68 71/33/68 56/118/68
f 76/119/69 74/120/69 73/121/69
f 72/35/70 18/24/70 56/118/70
f 74/104/71 72/35/71 57/34/71
f 77/122/72 55/123/72 76/119/72
f 75/30/73 55/124/73 77/28/73
f 19/125/74 20/22/74 72/35/74
f 19/125/75 79/126/75 59/40/75
f 78/116/76 79/127/76 75/117/76
f 78/128/77 70/129/77 79/105/77
f 5/1/78 8/11/78 4/2/78
f 6/4/79 5/1/79 1/3/79
f 3/6/80 7/9/80 6/7/80
f 4/2/81 8/11/81 7/9/81
f 5/1/82 9/12/82 12/10/82
f 6/4/83 10/16/83 9/12/83
f 11/13/84 10/18/84 6/7/84
f 12/10/85 11/13/85 7/9/85
f 13/14/86 16/21/86 12/10/86
f 14/15/87 13/14/87 9/12/87
f 11/13/88 15/19/88 14/17/88
f 12/10/89 16/21/89 15/19/89
f 20/22/90 60/41/90 58/23/90
f 50/25/18 46/86/18 42/26/18
f 69/31/91 75/117/91 76/32/91
f 45/37/22 31/130/22 35/38/22
f 20/22/92 19/125/92 59/40/92
f 18/24/93 58/23/93 70/42/93
f 28/43/94 26/91/94 23/44/94
f 48/46/95 41/65/95 37/47/95
f 32/49/27 40/79/27 51/50/27
f 36/52/96 30/78/96 38/53/96
f 47/77/97 49/51/97 51/50/97
f 29/55/98 39/63/98 38/53/98
f 52/76/39 51/50/39 40/79/39
f 33/58/99 32/49/99 49/51/99
f 35/60/41 31/57/41 30/78/41
f 37/62/42 36/52/42 34/54/42
f 40/79/43 32/49/43 34/59/43
f 41/65/44 48/46/44 47/27/44
f 44/84/100 46/86/100 50/25/100
f 43/39/46 42/26/46 46/86/46
f 37/47/47 41/65/47 43/67/47
f 29/88/101 31/130/101 45/37/101
f 39/89/102 29/131/102 44/84/102
f 26/91/103 27/98/103 25/92/103
f 28/43/104 24/132/104 25/94/104
f 26/91/53 28/43/53 53/96/53
f 27/98/105 26/91/105 22/97/105
f 27/95/106 21/100/106 53/96/106
f 60/107/107 59/133/107 79/105/107
f 79/105/108 70/129/108 58/106/108
f 69/31/109 70/42/109 78/116/109
f 18/24/110 69/31/110 71/33/110
f 73/121/69 56/134/69 71/135/69
f 76/119/69 55/123/69 74/120/69
f 73/121/69 71/135/69 76/119/69
f 56/118/111 73/36/111 72/35/111
f 72/35/112 20/22/112 18/24/112
f 75/30/113 19/125/113 55/124/113
f 74/104/114 55/124/114 72/35/114
f 55/124/115 19/125/115 72/35/115
f 19/125/116 75/30/116 79/126/116
usemtl cateye
f 81/136/117 82/137/117 80/138/117
f 85/139/118 86/140/118 84/141/118
f 81/136/117 83/142/117 82/137/117
f 85/139/118 87/143/118 86/140/118
